<svg preserveAspectRatio="none" overflow="visible" style="display: block;" width="78.3687" height="25.858" viewBox="0 0 78.3687 25.858" fill="none" xmlns="http://www.w3.org/2000/svg">
<g id="Text">
<path id="Vector" d="M51.1373 25.709H46.925L34.2514 6.53806V25.709H30.0392V0H34.2514L46.925 19.134V0H51.1373V25.709Z" fill="white"/>
<path id="Vector_2" d="M25.5687 0V25.709H21.377V0H25.5687Z" fill="white"/>
<path id="Vector_3" d="M4.98334 22.0468H16.9064V25.709H0V22.4167L11.8862 3.66214H0V0H16.9064V3.29223L4.98334 22.0468Z" fill="white"/>
<path id="Subtract" d="M67.8589 0.147045C71.8232 0.147045 75.367 1.94246 77.7251 4.76326L74.8482 7.1656C73.2114 5.01189 70.6901 3.63044 67.8599 3.63044C62.9261 3.6306 58.9263 7.82513 58.9263 12.9996C58.9264 18.174 62.9262 22.3686 67.8599 22.3687C70.9494 22.3687 73.6717 20.7234 75.2759 18.2232L78.3687 20.4C76.0417 23.7 72.2039 25.858 67.8589 25.858C60.759 25.8579 55.0034 20.1024 55.0034 13.0025C55.0035 5.90267 60.7591 0.14713 67.8589 0.147045Z" fill="white"/>
</g>
</svg>
